# xmcd
#
# Track frame offsets:
#	150
#	18344
#	35792
#	49844
#	60678
#	76583
#	91529
#	105023
#	125168
#	143398
#	158106
#	173188
#	189709
#	206061
#	219276
#	236633
#	250094
#	261937
#
# Disc length: 3688 seconds
#
# Revision: 7
# Processed by: cddbd v1.5.1PL0 Copyright (c) Steve Scherf et al.
# Submitted via: audiograbber 1.83.01
#
DISCID=ea0e6612
DTITLE=2003-08 Country Radio - 2003-08 Country Radio
DYEAR=2003
DGENRE=Country
TTITLE0=Montgomery Gentry - Hell Yeah
TTITLE1=Rascal Faltts - I Melt
TTITLE2=Diamond Rio - Wrinkles
TTITLE3=Dwight Yoakam - The Late Great Golden State
TTITLE4=Jo Dee Messina - I Wish
TTITLE5=Darryl Worley - Tennessee River Run
TTITLE6=Randy Travis - Pray for the Fish
TTITLE7=Blake Shelton - Playboys of the Southwestern World
TTITLE8=Ryan Tyler - Run Run Run
TTITLE9=Scott Emerick - I Can't Take You Amywhere
TTITLE10=Dusty Drake - Smaller Pieces
TTITLE11=Rebecca Lynn Howard - What A Shame
TTITLE12=Sammy Kershaw - I've Never Been Anywhere
TTITLE13=Jessica Andrews - Good Time
TTITLE14=Craig Morgan - Every Friday Afternoon
TTITLE15=Steve Wariner - I'm Your Man
TTITLE16=Jill King - Hand Me Down Heartache
TTITLE17=Ray Stevens - When The Kids Are Gone
EXTD=
EXTT0=
EXTT1=
EXTT2=
EXTT3=
EXTT4=
EXTT5=
EXTT6=
EXTT7=
EXTT8=
EXTT9=
EXTT10=
EXTT11=
EXTT12=
EXTT13=
EXTT14=
EXTT15=
EXTT16=
EXTT17=
PLAYORDER=
